# xmcd
#
# Track frame offsets:
#	150
#	21744
#	39382
#	57750
#	78400
#	103302
#	121425
#	142555
#	163767
#	188602
#	206835
#	230822
#	249502
#	267000
#	285890
#	306595
#
# Disc length: 4326 seconds
#
# Revision: 1229867087
# Processed by: cddbd v1.5.2PL0 Copyright (c) Steve Scherf et al.
# Submitted via: EZCDAudioConverter 8.0.2.1
#
DISCID=e210e410
DTITLE=QT. Céline Dion - All the Way… A Decade of Song
DYEAR=1999
DGENRE=
TTITLE0=Céline Dion - The Power of Love
TTITLE1=Céline Dion - If You Asked Me To
TTITLE2=Céline Dion feat. Peabo Bryson - Beauty and the Beast
TTITLE3=Céline Dion - Because You Loved Me (Theme From "Up Close and Personal")
TTITLE4=Céline Dion - It's All Coming Back to Me Now
TTITLE5=Céline Dion - Love Can Move Mountains
TTITLE6=Céline Dion - To Love You More
TTITLE7=Céline Dion - My Heart Will Go On (Love Theme From "Titanic")
TTITLE8=Céline Dion feat. R. Kelly - I'm Your Angel
TTITLE9=Céline Dion - That's the Way It Is
TTITLE10=Céline Dion - If Walls Could Talk
TTITLE11=Céline Dion - The First Time Ever I Saw Your Face
TTITLE12=Céline Dion feat. Frank Sinatra - All the Way
TTITLE13=Céline Dion - Then You Look at Me
TTITLE14=Céline Dion - I Want You to Need Me
TTITLE15=Céline Dion - Live for the One I Love
EXTD=
EXTT0=
EXTT1=
EXTT2=
EXTT3=
EXTT4=
EXTT5=
EXTT6=
EXTT7=
EXTT8=
EXTT9=
EXTT10=
EXTT11=
EXTT12=
EXTT13=
EXTT14=
EXTT15=
PLAYORDER=
